<svg xmlns="http://www.w3.org/2000/svg" viewBox="0 0 768 768"><defs/><path d="M341 97.9a48.9 48.9 0 00-23.2 14.3 43.8 43.8 0 00-7.8 9c0 .7-.9 2.4-1.9 3.7l-1.9 2.5-4-2.6a45.6 45.6 0 00-18.9-7.3 31.7 31.7 0 00-16.2 0 52.4 52.4 0 00-23 10 790.7 790.7 0 00-54 54.7 50.4 50.4 0 00-7.6 26.8l-.4 10.5-3.8-.2-12.2-.9a56 56 0 00-31.1 5.9 62 62 0 00-26.9 26.2 652 652 0 01-4.1 8.5c-.4.9-1.1 3.9-1.5 6.7-.7 5.1-.7 5.2-6.8 8.2a62 62 0 00-28.6 28.4c-6.4 13.4-6.1 8-6.1 114.5 0 92.5.1 97.3 2 105.8a112 112 0 0014.4 38.9l3.1 5 .3 88c.2 68.2.5 88.1 1.5 88.7 1.4.9 221.8 1.1 224.1.2 2-.8 2-3.6.1-18.3l-2.6-20.1-2.4-18.5-3-23-2.6-21.5-2.1-15.5-1.9-15.5-2.4-19.5c-.9-6.1-1.8-14.2-2.1-18-.6-6.4-.4-7.2 1.7-9.6 2-2 19.7-21.4 23.4-25.5l19.9-21.2c10.3-11 19.4-20.9 20.1-21.9a60.1 60.1 0 00-6.2-77 60 60 0 00-34.8-17.9c-9.2-1.2-8.4 4.8-8.7-58.7-.2-30.9-.5-56.8-.8-57.6-.4-1.1 1.5-2 7.1-3.6a58.6 58.6 0 0017.6-7.8c7.7-5.8 16-17.2 18.2-24.5 1.3-4.6 2.7-5.2 5.8-2.2a51 51 0 0067.3-.7c2.9-2.6 3.2-2.4 5.5 4.2a62 62 0 0012.7 19c7.7 6.4 13 9.2 22.8 12.1 5.3 1.5 7.4 2.6 7 3.5-.3.8-.6 26.7-.8 57.6-.4 63.5.5 57.5-8.7 58.7a57 57 0 00-19.7 6.3 18.1 18.1 0 01-4.7 2.3c-1.3 0-18.1 16.8-18.1 18.1 0 .5-1 2.6-2.3 4.7a59.3 59.3 0 00-6.7 36.6c2.3 16.2 8.2 25.9 28.3 46.6 13.1 13.5 21.1 22.1 32.2 34.5 5 5.5 10.5 11.4 12.3 13.1 3.6 3.5 4 6.5 2.3 16.5a378 378 0 00-2.6 19.4l-2.5 21-2.5 20L470 659c-.5 3.6-1.7 12.3-2.5 19.5-4 32.3-4.6 37.4-5.5 43.5-2 14.2-2.2 20.2-.8 21.1.7.5 51.3.9 112.4.9 85 0 111.3-.3 112.2-1.2.9-.9 1.2-21.9 1.2-88.3v-87l3.3-5.5c3.1-5.4 5.4-10 7.4-15l2.3-5.5a146 146 0 005.5-20.7c2.2-10.8 2.3-197.8 0-206.4a63.6 63.6 0 00-34.7-41.2c-4.1-1.9-4.6-2.5-5.1-6.4a67.7 67.7 0 00-9.1-22.1 64.7 64.7 0 00-36.8-25.3 71.6 71.6 0 00-27.3.1c-3.2.8-6.1 1.2-6.3 1-.2-.2-.5-5.5-.7-11.7-.1-6.3-.7-12.3-1.3-13.4l-2.8-6.4a47 47 0 00-5.3-9 891.1 891.1 0 00-55.5-54.9 53.8 53.8 0 00-21.4-8.1c-9.8-1.7-24 1.5-33.3 7.7-4.6 3-5.7 2.5-9.1-4.4a58 58 0 00-21.7-19.6l-6.6-3.2-42-.2c-23.1-.1-43.6.2-45.5.6zM169.9 260.5c3.8 1.9 10 9.2 10.9 12.7.9 3.8 2.6 4 3 .4.4-3.3 6.2-9.9 10.6-12.1 4.7-2.4 12.8-3 16.2-1.2 7.4 3.9 11.4 12.6 11.5 25.6 0 7.8 1.2 13 2.2 10.1l1.1-4c.6-2.9 4.8-7.7 8.7-10.2 2.5-1.6 7.1-2.2 13.7-1.9 4.5.1 12.6 8.3 13.7 13.8 1 4.8 1 164.9 0 172-.6 4.6-.5 5.3 1 5.3 1 0 7.9-6 15.4-13.4 7.5-7.3 15.1-14.1 16.8-15a22.7 22.7 0 0116.6 0 19.7 19.7 0 019 26.4c-1.3 2.5-7.4 9.7-13.5 16.1a1540.8 1540.8 0 00-40.4 42.9 324 324 0 01-12.4 13.3c-4.6 4.8-8.9 9.5-9.3 10.3-.5.8-.4 6.3.2 12.2.9 9.8 1.6 15.6 4.1 34.2 2.1 15.3 3.3 25 4.1 32 2.7 24.3 2.6 23.6 6.3 50.5.9 6 1.7 13.2 1.8 16l.2 5-69.7.3-69.7.2-.2-74.3-.3-74.3-4.2-5.3c-2.4-3-4.3-5.8-4.3-6.3 0-.4-1-2.5-2.3-4.6a79 79 0 01-8-24.2c-.5-3.6-1.1-45.4-1.4-93-.5-98.5-.6-97.5 6.1-104.3 9.7-9.9 25.1-7.3 31.4 5.3 1.4 3 2.2 3.7 2.9 2.8.4-.7.9-12.5 1.1-26.2l.3-25 2.7-3.7c5.9-8.1 17.1-12.1 24.1-8.4zm406.2 1.4c4.5 2.8 9.9 10.3 9.9 13.5 0 3 1.9 1.6 2.6-1.9.6-3.6 5.8-9.8 10.1-12.2 1.2-.7 4.6-1.6 7.5-1.9 4.4-.5 6-.2 9 1.5 4 2.4 8 7.2 9.3 11.1.5 1.4 1.1 13.4 1.4 26.7.4 16.7 1 24.6 1.8 25.4.9.9 1.4.5 1.9-1.7.9-3.6 7.7-10.2 11.2-11a18 18 0 004.3-1.4c.9-.5 3.7-.4 6.4.2 5.9 1.3 13.1 7.9 14 13 .3 1.8.5 46.3.3 98.8l-.4 95.5-3 8.1a98.6 98.6 0 01-12.7 23.8l-3.2 4-.5 74.1-.5 74-69.9.3-69.9.2.7-3.7c.4-2.1 1.1-7.6 1.6-12.3l2.5-20.5L513 646c.8-8 2.5-21.5 4-32 1.6-11.7 3.2-24.4 4-31.5l2-17.3c.6-5.8.8-11.3.3-12.6-.4-1.3-6-7.8-12.3-14.4a830 830 0 01-13.5-14.3A975 975 0 00465 489c-6.2-6.3-13-13.9-15.2-16.8-3.7-4.8-4.1-5.7-4.1-11.5-.1-5.5.3-6.9 3.2-11 4-5.9 9.3-8.7 16.4-8.7 7.1 0 10.9 2.6 26.2 18 6.6 6.6 12.5 12 13.2 12 1 0 1.3-17.5 1.3-87.3 0-59.7.4-88.5 1.1-91.2 1.6-5.8 8.4-12.1 14.2-12.9 7.9-1.2 12.4.2 17.7 5.4 2.8 2.9 5 6.1 5.3 8 1.3 6.4 2.7 1.7 2.7-9.1 0-10.5.1-11.2 2.8-14.7 3.8-5.1 6-7.2 7.5-7.2.7 0 1.7-.4 2.3-.9.5-.5 2-1.1 3.4-1.4 6-1.1 8.8-.6 13.1 2.2z"/></svg>
